# xmcd
#
# Track frame offsets:
#	150
#	14488
#	29157
#	45795
#	63851
#	83461
#	105418
#	119062
#	134709
#	151416
#
# Disc length: 2221 seconds
#
# Revision: 1
# Processed by: cddbd v1.5.1PL0 Copyright (c) Steve Scherf et al.
# Submitted via: EasyCDDAExtractor 6.5.9.5
#
DISCID=7d08ab0a
DTITLE=Eddie Rabbitt - Greatest Hits 2
DYEAR=1983
DGENRE=Country
TTITLE0=I Love A Rainy Night
TTITLE1=Drivin' My Life Away
TTITLE2=Step By Step
TTITLE3=Just You And I (with Crystal Gayle)
TTITLE4=Suspicions
TTITLE5=You Put The Beat In My Heart
TTITLE6=Nothin' Like Fallin' In Love
TTITLE7=Someone Could Lose A Heart
TTITLE8=You Can't Run From Love
TTITLE9=Gone Too Far
EXTD=
EXTT0=
EXTT1=
EXTT2=
EXTT3=
EXTT4=
EXTT5=
EXTT6=
EXTT7=
EXTT8=
EXTT9=
PLAYORDER=
